<?xml version="1.0" standalone="no"?><!DOCTYPE svg PUBLIC "-//W3C//DTD SVG 1.1//EN" "http://www.w3.org/Graphics/SVG/1.1/DTD/svg11.dtd"><svg t="1561444918313" class="icon" viewBox="0 0 1063 1024" version="1.1" xmlns="http://www.w3.org/2000/svg" p-id="1562" width="66.4375" height="64" xmlns:xlink="http://www.w3.org/1999/xlink"><defs><style type="text/css"></style></defs><path d="M305.786521 575.731163C436.257355 556.341258 536.739544 436.346853 536.739544 291.139377 536.739544 132.365162 416.727177 3.697957 268.632957 3.697957 120.596517 3.697957 0.526368 132.365162 0.526368 291.139377 0.526368 436.346853 101.008556 556.341258 231.537173 575.731163L231.537173 714.124296 57.90349 714.124296 57.90349 793.604326 231.537175 793.604324 231.537175 979.821763 305.728738 979.821763 305.728738 793.666274 479.362423 793.666274 479.362423 714.186242 305.786521 714.186244 305.786521 575.731163 305.786521 575.731163ZM511.315645 729.301697C511.373426 888.075913 631.443574 1016.743117 779.595577 1016.681169 927.689798 1016.619221 1047.644384 887.890069 1047.586603 729.115851 1047.528821 583.908375 946.988851 463.975921 816.518015 444.586015L816.402451 152.932091 887.300465 229.004949 939.766152 172.755637 816.286888 40.495416 816.286888 40.495416 816.286888 40.495416 779.133324 0.724426 618.789405 172.817587 671.255092 229.004951 742.210887 152.870143 742.32645 444.524067C611.740052 464.037871 511.257863 584.094222 511.315645 729.301697L511.315645 729.301697Z" p-id="1563" fill="#2c2c2c"></path></svg>